Coordinates
version=1
nRows=107
nColumns=6
inDegrees=yes

Units are S.I. units (second, meters, Newtons, ...)
If the header above contains a line with 'inDegrees', this indicates whether rotational values are in degrees (yes) or radians (no).

endheader
time	foot_tx	hip_flexion_r	knee_angle_r	ankle_angle_r	lumbar
      2.90000000	      0.17666237	     55.13951960	    -73.86244543	      6.35546254	    -22.37999453
      2.91000000	      0.17664481	     55.14403052	    -73.85970401	      6.35050125	    -22.38521213
      2.92000000	      0.17663119	     55.14918063	    -73.85436629	      6.34414155	    -22.39237817
      2.93000000	      0.17662479	     55.15422061	    -73.84650406	      6.33635242	    -22.40225382
      2.94000000	      0.17660804	     55.15805233	    -73.83787018	      6.32944953	    -22.41765631
      2.95000000	      0.17657639	     55.14465942	    -73.83059190	      6.32627059	    -22.45666627
      2.96000000	      0.17654743	     55.15879409	    -73.82331043	      6.32087519	    -22.47140330
      2.97000000	      0.17651461	     55.17502570	    -73.81497342	      6.31564527	    -22.48955333
      2.98000000	      0.17647820	     55.19411034	    -73.80655142	      6.31099922	    -22.51132955
      2.99000000	      0.17643793	     55.21594866	    -73.79735066	      6.30671532	    -22.53738420
      3.00000000	      0.17638847	     55.22212363	    -73.78798660	      6.30510774	    -22.58847572
      3.01000000	      0.17634413	     55.25456933	    -73.77981773	      6.30228188	    -22.61974807
      3.02000000	      0.17629613	     55.29033010	    -73.77169986	      6.30031898	    -22.65683392
      3.03000000	      0.17624788	     55.32965127	    -73.76406935	      6.29916096	    -22.69997827
      3.04000000	      0.17619029	     55.34804499	    -73.75663461	      6.30173613	    -22.77672657
      3.05000000	      0.17614167	     55.39913323	    -73.75113374	      6.30284843	    -22.82808424
      3.06000000	      0.17610022	     55.45064615	    -73.74410505	      6.30383438	    -22.89112251
      3.07000000	      0.17604489	     55.47186224	    -73.73965041	      6.31129811	    -22.99741822
      3.08000000	      0.17601006	     55.53706827	    -73.73601240	      6.31543294	    -23.06676644
      3.09000000	      0.17596554	     55.56895074	    -73.73146952	      6.32424131	    -23.18545709
      3.10000000	      0.17593721	     55.64561012	    -73.72804413	      6.33018573	    -23.26699087
      3.11000000	      0.17589365	     55.68564061	    -73.72516883	      6.34242571	    -23.40150169
      3.12000000	      0.17586045	     55.75494210	    -73.72129917	      6.35210269	    -23.51913489
      3.13000000	      0.17583441	     55.85489094	    -73.71778014	      6.35995122	    -23.61885159
      3.14000000	      0.17579404	     55.92750356	    -73.71158030	      6.37043744	    -23.76843372
      3.15000000	      0.17576307	     56.04877605	    -73.70554369	      6.37661118	    -23.88412085
      3.16000000	      0.17572519	     56.16165622	    -73.69681855	      6.38300352	    -24.03123458
      3.17000000	      0.17569344	     56.30632191	    -73.68746676	      6.38651479	    -24.16400591
      3.18000000	      0.17565263	     56.46156296	    -73.67610062	      6.38968221	    -24.30750241
      3.19000000	      0.17560622	     56.62626618	    -73.66316262	      6.39326612	    -24.46088132
      3.20000000	      0.17555380	     56.79999842	    -73.64881684	      6.39782233	    -24.62412470
      3.21000000	      0.17549462	     56.98266003	    -73.63328639	      6.40369723	    -24.79734664
      3.22000000	      0.17542832	     57.17446515	    -73.61674678	      6.41102501	    -24.98060313
      3.23000000	      0.17535496	     57.37581391	    -73.59929935	      6.41982626	    -25.17375788
      3.24000000	      0.17527512	     57.58721645	    -73.58105766	      6.43012371	    -25.37646673
      3.25000000	      0.17518988	     57.80928982	    -73.56220127	      6.44198040	    -25.58821460
      3.26000000	      0.17510088	     58.04274139	    -73.54290179	      6.45544087	    -25.80843633
      3.27000000	      0.17501027	     58.28828591	    -73.52322621	      6.47046991	    -26.03667285
      3.28000000	      0.17492039	     58.54652780	    -73.50309903	      6.48697338	    -26.27264512
      3.29000000	      0.17483346	     58.81783834	    -73.48232365	      6.50491074	    -26.51612659
      3.30000000	      0.17475173	     59.10229599	    -73.46085091	      6.52434619	    -26.76708263
      3.31000000	      0.17467488	     59.39975283	    -73.43834535	      6.54576474	    -27.02512248
      3.32000000	      0.17460250	     59.70998696	    -73.41485195	      6.56949453	    -27.29007210
      3.33000000	      0.17452905	     60.03382362	    -73.38973132	      6.59570622	    -27.56081321
      3.34000000	      0.17445443	     60.40634905	    -73.36808454	      6.62452001	    -27.79663014
      3.35000000	      0.17437489	     60.74469732	    -73.34141376	      6.65903398	    -28.09042870
      3.36000000	      0.17428686	     61.13477444	    -73.31692244	      6.69576478	    -28.34672091
      3.37000000	      0.17418935	     61.53572010	    -73.29198971	      6.73672433	    -28.61175283
      3.38000000	      0.17408987	     61.97157133	    -73.26764456	      6.77968866	    -28.85947052
      3.39000000	      0.17398672	     62.44978210	    -73.24417429	      6.82420156	    -29.08166601
      3.40000000	      0.17388152	     62.96668912	    -73.22099088	      6.87106360	    -29.27984272
      3.41000000	      0.17377768	     63.50827939	    -73.19718884	      6.92203200	    -29.46467081
      3.42000000	      0.17367512	     64.06402336	    -73.17128053	      6.97882189	    -29.64332693
      3.43000000	      0.17357008	     64.62380252	    -73.14313954	      7.04369195	    -29.82301142
      3.44000000	      0.17346648	     65.18779868	    -73.11124498	      7.11646195	    -30.00091631
      3.45000000	      0.17335803	     65.75298058	    -73.07643661	      7.19841276	    -30.17860330
      3.46000000	      0.17325527	     66.32686699	    -73.03544646	      7.28666239	    -30.34689149
      3.47000000	      0.17315575	     66.91307562	    -72.98796794	      7.38108150	    -30.50068952
      3.48000000	      0.17306217	     67.51361709	    -72.93230814	      7.48081511	    -30.63641766
      3.49000000	      0.17297917	     68.12729492	    -72.86758120	      7.58567077	    -30.75340595
      3.50000000	      0.17291063	     68.75457498	    -72.79283001	      7.69552466	    -30.84898142
      3.51000000	      0.17285941	     69.39335830	    -72.70746657	      7.81086545	    -30.92274186
      3.52000000	      0.17283294	     70.04679834	    -72.60947353	      7.93020191	    -30.96916497
      3.53000000	      0.17283186	     70.71767533	    -72.49770909	      8.05327258	    -30.98239612
      3.54000000	      0.17286889	     71.40871738	    -72.36904651	      8.17753445	    -30.95641819
      3.55000000	      0.17293829	     72.12259252	    -72.22410555	      8.30416406	    -30.88467497
      3.56000000	      0.17304410	     72.86141124	    -72.06111287	      8.43207091	    -30.76135264
      3.57000000	      0.17318405	     73.62097451	    -71.87842823	      8.56121751	    -30.58840704
      3.58000000	      0.17335332	     74.39577382	    -71.67500151	      8.69194449	    -30.36907208
      3.59000000	      0.17353714	     75.17225383	    -71.45351379	      8.82738471	    -30.11706434
      3.60000000	      0.17373355	     75.94328804	    -71.21275211	      8.96708950	    -29.83861101
      3.61000000	      0.17393786	     76.69676351	    -70.95570789	      9.11316973	    -29.54563888
      3.62000000	      0.17414457	     77.42011244	    -70.68611741	      9.26783429	    -29.25055816
      3.63000000	      0.17435846	     78.10346677	    -70.40741004	      9.43218418	    -28.96200756
      3.64000000	      0.17457827	     78.73998608	    -70.12467841	      9.60824492	    -28.68366779
      3.65000000	      0.17481080	     79.31737932	    -69.84198597	      9.79720303	    -28.42584826
      3.66000000	      0.17505298	     79.83097791	    -69.56375644	     10.00022735	    -28.18863987
      3.67000000	      0.17530380	     80.27675698	    -69.29383390	     10.21775737	    -27.97211521
      3.68000000	      0.17555968	     80.64870965	    -69.03476492	     10.44982067	    -27.77891671
      3.69000000	      0.17581617	     80.94295242	    -68.78761387	     10.69538870	    -27.61076032
      3.70000000	      0.17606783	     81.15989399	    -68.55169682	     10.95246587	    -27.46442881
      3.71000000	      0.17630981	     81.29875208	    -68.32533018	     11.21896250	    -27.33887792
      3.72000000	      0.17654001	     81.36122862	    -68.10486452	     11.49158269	    -27.23191027
      3.73000000	      0.17676233	     81.35439089	    -67.88592805	     11.76630159	    -27.13568563
      3.74000000	      0.17697012	     81.27745810	    -67.66329190	     12.04038628	    -27.05133353
      3.75000000	      0.17718480	     81.15868477	    -67.42687338	     12.30432585	    -26.94857744
      3.76000000	      0.17736780	     80.94869783	    -67.17722420	     12.56550879	    -26.88433020
      3.77000000	      0.17755215	     80.70809269	    -66.90251641	     12.81050143	    -26.79217148
      3.78000000	      0.17772600	     80.42512970	    -66.59926700	     13.03973227	    -26.68722432
      3.79000000	      0.17788798	     80.10467735	    -66.26287638	     13.25104307	    -26.56651442
      3.80000000	      0.17804693	     79.75489558	    -65.89000234	     13.44153249	    -26.42341166
      3.81000000	      0.17818851	     79.37490776	    -65.47877231	     13.61179638	    -26.26175179
      3.82000000	      0.17832464	     78.97326383	    -65.02699709	     13.75919653	    -26.07482416
      3.83000000	      0.17845797	     78.55044556	    -64.53468397	     13.88324959	    -25.86523937
      3.84000000	      0.17859305	     78.10800334	    -64.00184211	     13.98332455	    -25.63413030
      3.85000000	      0.17873803	     77.64700300	    -63.43017623	     14.05923900	    -25.38271087
      3.86000000	      0.17889430	     77.16377347	    -62.82239226	     14.11251930	    -25.11668226
      3.87000000	      0.17906356	     76.65410360	    -62.18218138	     14.14517508	    -24.84213951
      3.88000000	      0.17924424	     76.11543169	    -61.51413412	     14.15976267	    -24.56296330
      3.89000000	      0.17943037	     75.54266358	    -60.82284357	     14.15947238	    -24.28603312
      3.90000000	      0.17961690	     74.93658018	    -60.11292302	     14.14678978	    -24.01134535
      3.91000000	      0.17979543	     74.29761558	    -59.38829889	     14.12403852	    -23.74052468
      3.92000000	      0.17996283	     73.62748741	    -58.65218179	     14.09279173	    -23.47245858
      3.93000000	      0.18011621	     72.92740492	    -57.90805625	     14.05500225	    -23.20687610
      3.94000000	      0.18026111	     72.20312465	    -57.15730697	     14.01020908	    -22.93841580
      3.95000000	      0.18039496	     71.46194816	    -56.39858202	     13.95750402	    -22.66039225
      3.96000000	      0.18052602	     70.69648478	    -55.63516341	     13.89881353	    -22.38018591
